<svg width="512" height="512" viewBox="0 0 512 512" fill="none" xmlns="http://www.w3.org/2000/svg">
<path d="M256 135.734C283.824 135.734 310.788 145.381 332.297 163.031C353.805 180.682 368.529 205.245 373.957 232.534C379.386 259.824 375.185 288.151 362.07 312.69C348.954 337.229 327.735 356.461 302.03 367.11C276.324 377.758 247.721 379.164 221.095 371.088C194.468 363.011 171.466 345.953 156.008 322.818C140.549 299.684 133.59 271.905 136.317 244.214C139.043 216.524 151.287 190.636 170.961 170.961C182.102 159.757 195.354 150.875 209.951 144.828C224.549 138.782 240.2 135.691 256 135.734ZM256 116.156C178.764 116.156 116.156 178.764 116.156 256C116.156 333.236 178.764 395.844 256 395.844C333.236 395.844 395.844 333.236 395.844 256C395.844 178.764 333.236 116.156 256 116.156Z" fill="#296DAB"/>
<path d="M256 311.938C286.893 311.938 311.938 286.893 311.938 256C311.938 225.107 286.893 200.062 256 200.062C225.107 200.062 200.062 225.107 200.062 256C200.062 286.893 225.107 311.938 256 311.938Z" fill="#296DAB"/>
<path d="M256 416.82C275.308 416.82 290.961 401.168 290.961 381.859C290.961 362.551 275.308 346.898 256 346.898C236.692 346.898 221.039 362.551 221.039 381.859C221.039 401.168 236.692 416.82 256 416.82Z" fill="#296DAB"/>
<path d="M256 165.102C275.308 165.102 290.961 149.449 290.961 130.141C290.961 110.832 275.308 95.1797 256 95.1797C236.692 95.1797 221.039 110.832 221.039 130.141C221.039 149.449 236.692 165.102 256 165.102Z" fill="#296DAB"/>
<path d="M381.859 290.961C401.168 290.961 416.82 275.308 416.82 256C416.82 236.692 401.168 221.039 381.859 221.039C362.551 221.039 346.898 236.692 346.898 256C346.898 275.308 362.551 290.961 381.859 290.961Z" fill="#296DAB"/>
<path d="M130.141 290.961C149.449 290.961 165.102 275.308 165.102 256C165.102 236.692 149.449 221.039 130.141 221.039C110.832 221.039 95.1797 236.692 95.1797 256C95.1797 275.308 110.832 290.961 130.141 290.961Z" fill="#296DAB"/>
</svg>
