<svg width="512" height="512" viewBox="0 0 512 512" fill="none" xmlns="http://www.w3.org/2000/svg">
<path d="M327.67 256C327.67 323.987 272.555 379.101 204.569 379.101C136.582 379.101 81.468 323.987 81.468 256C81.468 188.014 136.582 132.9 204.569 132.9C272.555 132.9 327.67 188.014 327.67 256Z" stroke="#0089D7" stroke-width="10.9375"/>
<path d="M327.675 255.999C327.675 295.583 295.586 327.672 256.002 327.672C216.418 327.672 184.329 295.583 184.329 255.999C184.329 216.415 216.418 184.326 256.002 184.326C295.586 184.326 327.675 216.415 327.675 255.999Z" stroke="#0089D7" stroke-width="10.9375"/>
<path d="M255.999 184.33C323.985 184.33 379.099 239.444 379.099 307.431C379.099 375.418 323.985 430.532 255.999 430.532C188.012 430.532 132.898 375.418 132.898 307.431C132.898 239.444 188.012 184.33 255.999 184.33Z" stroke="#0089D7" stroke-width="10.9375"/>
<path d="M430.531 256C430.531 323.987 375.416 379.101 307.43 379.101C239.443 379.101 184.329 323.987 184.329 256C184.329 188.014 239.443 132.9 307.43 132.9C375.416 132.9 430.531 188.014 430.531 256Z" stroke="#0089D7" stroke-width="10.9375"/>
<path d="M255.999 81.4683C323.985 81.4683 379.099 136.582 379.099 204.569C379.099 272.556 323.985 327.67 255.999 327.67C188.012 327.67 132.898 272.556 132.898 204.569C132.898 136.582 188.012 81.4683 255.999 81.4683Z" stroke="#0089D7" stroke-width="10.9375"/>
</svg>
